<?xml version="1.0" encoding="utf-8"?>
<!-- Generator: Adobe Illustrator 16.0.0, SVG Export Plug-In . SVG Version: 6.00 Build 0)  -->
<!DOCTYPE svg PUBLIC "-//W3C//DTD SVG 1.1//EN" "http://www.w3.org/Graphics/SVG/1.1/DTD/svg11.dtd">
<svg version="1.1" id="Layer_1" xmlns="http://www.w3.org/2000/svg" xmlns:xlink="http://www.w3.org/1999/xlink" x="0px" y="0px"
	 width="90px" height="90px" viewBox="0 0 90 90" enable-background="new 0 0 90 90" xml:space="preserve">
<circle fill="#A097C9" cx="45" cy="45" r="45"/>
<path fill="#E6E6E5" d="M68.15,64.939c1.43,1.24,0.819,3.59-1.04,3.961C62.76,69.79,54.95,71,44.99,71
	c-10.13,0-17.73-1.189-21.98-2.07c-1.859-0.39-2.45-2.75-1-3.97c2.061-1.729,5.13-3.37,8.55-4.45c0.53,0.95,1.44,1.83,2.671,2.52
	c0.779,0.441,2.39,1.211,3.21,1.551C38.82,65.59,41.82,66,45,66c6.88,0,12.71-2.52,14.46-5.6l0.04,0.02
	C62.98,61.48,66.12,63.2,68.15,64.939z"/>
<path fill="#A7ADB3" d="M30,58.5v-3.8l0.14-0.12C33.61,58.5,38.98,61,45,61s11.39-2.5,14.86-6.42L60,54.7v3.8
	c0,0.65-0.19,1.279-0.54,1.9C57.71,63.48,51.88,66,45,66c-3.18,0-6.18-0.41-8.56-1.42c-0.82-0.34-2.431-1.109-3.21-1.551
	C32,62.34,31.09,61.46,30.56,60.51C30.19,59.859,30,59.17,30,58.5z"/>
<path fill="#E6E6E5" d="M64,42.5c0,0.5,0,1,0,1.5c0,4.01-1.55,7.68-4.14,10.58C56.39,58.5,51.02,61,45,61s-11.39-2.5-14.86-6.42
	C27.55,51.68,26,48.01,26,44c0-0.5,0-1,0-1.5C26,48.3,34.51,53,45,53S64,48.3,64,42.5z"/>
<path fill="#A5B1DA" d="M64,39.5c0,1.02,0,2.01,0,3C64,48.3,55.49,53,45,53s-19-4.7-19-10.5c0-0.99,0-1.98,0-3
	c0-3.32,1.87-6.47,5.16-8.57c0.649-0.41,1.979-1.18,2.66-1.54C36.9,27.77,40.82,27,45,27C55.49,27,64,32.6,64,39.5z"/>
<path fill="#E6E6E5" d="M64,36c0,1.23,0,2.38,0,3.5C64,32.6,55.49,27,45,27c-4.18,0-8.1,0.77-11.18,2.39
	c-0.681,0.36-2.011,1.13-2.66,1.54C27.87,33.03,26,36.18,26,39.5c0-1.12,0-2.27,0-3.5c0-10.49,8.51-19,19-19S64,25.51,64,36z"/>
<g>
	<path fill="none" stroke="#393229" stroke-width="2" stroke-linecap="round" stroke-linejoin="round" stroke-miterlimit="10" d="
		M59.5,60.416c3.479,1.059,6.621,2.78,8.647,4.529c1.436,1.238,0.817,3.58-1.04,3.957C62.759,69.785,54.955,71.003,44.992,71
		c-10.137-0.003-17.733-1.191-21.978-2.072c-1.861-0.387-2.456-2.748-1.002-3.972c2.054-1.729,5.138-3.378,8.57-4.456"/>
	<path fill="none" stroke="#393229" stroke-width="2" stroke-linecap="round" stroke-linejoin="round" stroke-miterlimit="10" d="
		M30,39.654C30,34.875,36.716,31,45,31s15,3.875,15,8.654"/>
	<path fill="none" stroke="#393229" stroke-width="2" stroke-linecap="round" stroke-linejoin="round" stroke-miterlimit="10" d="
		M33.821,29.391C36.958,27.887,40.821,27,45,27c10.493,0,19,5.596,19,12.5"/>
	<path fill="none" stroke="#393229" stroke-width="2" stroke-linecap="round" stroke-linejoin="round" stroke-miterlimit="10" d="
		M26,39.5c0-3.316,1.962-6.33,5.164-8.567"/>
	<path fill="none" stroke="#393229" stroke-width="2" stroke-linecap="round" stroke-linejoin="round" stroke-miterlimit="10" d="
		M26,42.5C26,48.299,34.507,53,45,53s19-4.701,19-10.5"/>
	<path fill="none" stroke="#393229" stroke-width="2" stroke-linecap="round" stroke-linejoin="round" stroke-miterlimit="10" d="
		M64,36c0-10.494-8.507-19-19-19s-19,8.506-19,19c0,2.918,0,5.389,0,8c0,9.389,8.507,17,19,17s19-7.611,19-17
		C64,41.389,64,38.918,64,36z"/>
	<path fill="none" stroke="#393229" stroke-width="2" stroke-linecap="round" stroke-linejoin="round" stroke-miterlimit="10" d="
		M36.439,64.581C38.871,65.463,41.824,66,45,66c8.25,0,15-3.626,15-7.5v-3.8"/>
	<path fill="none" stroke="#393229" stroke-width="2" stroke-linecap="round" stroke-linejoin="round" stroke-miterlimit="10" d="
		M30,54.7v3.8c0,1.641,1.21,3.236,3.23,4.531"/>
	
		<line fill="none" stroke="#393229" stroke-width="2" stroke-linecap="round" stroke-linejoin="round" stroke-miterlimit="10" x1="39.875" y1="40.2" x2="40.074" y2="40.2"/>
	
		<line fill="none" stroke="#393229" stroke-width="2" stroke-linecap="round" stroke-linejoin="round" stroke-miterlimit="10" x1="49.881" y1="40.2" x2="50.08" y2="40.2"/>
	
		<line fill="none" stroke="#393229" stroke-width="2" stroke-linecap="round" stroke-linejoin="round" stroke-miterlimit="10" x1="37.501" y1="39" x2="42.375" y2="39"/>
	
		<line fill="none" stroke="#393229" stroke-width="2" stroke-linecap="round" stroke-linejoin="round" stroke-miterlimit="10" x1="52.526" y1="39" x2="47.651" y2="39"/>
	<path fill="none" stroke="#393229" stroke-width="2" stroke-linecap="round" stroke-linejoin="round" stroke-miterlimit="10" d="
		M60,45c-2,2-6.833,4-10,4h-2.2"/>
</g>
<ellipse fill="#EEEAE1" stroke="#393229" stroke-width="2" stroke-linecap="round" stroke-linejoin="round" stroke-miterlimit="10" cx="46.5" cy="49" rx="1.5" ry="1"/>
</svg>
