<?xml version="1.0" ?><svg id="lightbulb" viewBox="0 0 19.67 28" xmlns="http://www.w3.org/2000/svg"><defs><style>.cls-1{fill:#fbca39;}.cls-2{fill:none;}.cls-3{fill:#efd79d;}.cls-4{fill:#dcc591;}.cls-5{fill:#b2b2b2;}</style></defs><title/><polyline class="cls-1" points="5.35 23.09 5.88 23.09 0.6 9.09 1.59 5.1 6.11 0.58 13.56 0.58 18.08 5.1 19.07 9.09 13.79 23.09 14.3 23.09"/><polygon class="cls-2" points="12.26 8.76 10.11 10.45 10.98 11.11 10.98 11.24 11.23 17.8 13.91 12.62 12.26 8.76"/><polygon class="cls-2" points="9.15 23.09 9.94 23.09 9.55 22.31 9.15 23.09"/><polygon class="cls-2" points="9.88 21.68 10.59 23.09 10.85 23.09 10.73 20.02 9.88 21.68"/><polygon class="cls-2" points="18.08 5.1 13.56 0.58 6.11 0.58 1.59 5.1 0.6 9.09 5.88 23.09 7.73 23.09 7.91 19.08 4.78 12.92 6.82 7.94 9.64 10.09 12.49 7.84 14.55 12.64 11.27 18.98 11.43 23.09 13.79 23.09 19.07 9.09 18.08 5.1"/><polygon class="cls-2" points="7.07 8.86 5.41 12.9 7.96 17.91 8.26 11.17 9.17 10.45 7.07 8.86"/><polygon class="cls-2" points="9.64 10.82 8.82 11.46 8.49 18.96 9.55 21.05 10.69 18.85 10.41 11.4 9.64 10.82"/><polygon class="cls-2" points="8.44 20.13 8.31 23.09 8.5 23.09 9.23 21.68 8.44 20.13"/><polygon points="5.88 23.09 0.6 9.09 1.59 5.1 6.11 0.58 13.56 0.58 18.08 5.1 19.07 9.09 13.79 23.09 14.3 23.09 14.3 23.37 19.67 9.12 18.62 4.87 18.6 4.8 13.8 0 5.87 0 1.07 4.8 0 9.12 5.35 23.31 5.35 23.09 5.88 23.09"/><path d="M21.16,14.64L19.1,9.84l-2.85,2.25L13.43,9.94l-2,5,3.13,6.16-0.18,4h0.58l0.13-3,0.79,1.55-0.73,1.41h0.65l0.4-.77,0.39,0.77H17.2l-0.71-1.41L17.34,22l0.11,3.06H18L17.88,21Zm-6.29-1.47-0.3,6.74L12,14.9l1.66-4,2.1,1.6ZM16.16,23L15.1,21l0.33-7.5,0.82-.64L17,13.4l0.28,7.45Zm1.43-9.8V13.11l-0.87-.66,2.15-1.69,1.66,3.86-2.68,5.19Z" transform="translate(-6.61 -2)"/><path d="M20.91,25.09H12V30h9V25.09Zm-0.58,4.34h-7.8V28.92h7.8v0.51Zm0-1.08h-7.8V27.83h7.8v0.51Zm0-1.08h-7.8V26.75h7.8v0.51Zm0-1.08h-7.8V25.66h7.8v0.51Z" transform="translate(-6.61 -2)"/><polygon class="cls-3" points="10.98 11.24 10.98 11.11 10.11 10.45 12.26 8.76 13.91 12.62 11.23 17.8 10.98 11.24"/><polygon class="cls-3" points="8.26 11.17 7.96 17.91 5.41 12.9 7.07 8.86 9.17 10.45 8.26 11.17"/><polygon class="cls-4" points="9.55 21.05 8.49 18.96 8.82 11.46 9.64 10.82 10.41 11.4 10.69 18.85 9.55 21.05"/><polyline class="cls-3" points="10.59 23.09 9.88 21.68 10.73 20.02 10.85 23.09 11.43 23.09"/><polyline class="cls-3" points="7.73 23.09 8.31 23.09 8.44 20.13 9.23 21.68 8.5 23.09 9.15 23.09"/><rect class="cls-5" height="0.51" width="7.8" x="5.93" y="23.66"/><rect class="cls-5" height="0.51" width="7.8" x="5.93" y="24.75"/><rect class="cls-5" height="0.51" width="7.8" x="5.93" y="25.83"/><rect class="cls-5" height="0.51" width="7.8" x="5.93" y="26.92"/></svg>