<?xml version="1.0" encoding="utf-8"?>
<!-- Generator: Adobe Illustrator 16.0.0, SVG Export Plug-In . SVG Version: 6.00 Build 0)  -->
<!DOCTYPE svg PUBLIC "-//W3C//DTD SVG 1.1//EN" "http://www.w3.org/Graphics/SVG/1.1/DTD/svg11.dtd">
<svg version="1.1" id="Layer_1" xmlns="http://www.w3.org/2000/svg" xmlns:xlink="http://www.w3.org/1999/xlink" x="0px" y="0px"
	 width="90px" height="90px" viewBox="0 0 90 90" enable-background="new 0 0 90 90" xml:space="preserve">
<circle fill="#EFEAE1" cx="45" cy="45" r="45"/>
<polygon fill="#DD5089" points="58,33 68,45 54,45 53.93,44.9 "/>
<polygon fill="#DD5089" points="68,45 45,71 53.89,45 54,45 "/>
<polygon fill="#FFD1E3" points="53.89,45 45,71 36.11,45 "/>
<polygon fill="#DD5089" points="36.11,45 45,71 22,45 36,45 "/>
<polygon fill="#DD5089" points="36.07,44.9 36,45 22,45 32,33 "/>
<polygon fill="#DD5089" points="45,33 36.07,44.9 32,33 "/>
<polygon fill="#FFD1E3" points="53.93,44.9 53.89,45 36.11,45 36.07,44.9 45,33 "/>
<polygon fill="#DD5089" points="58,33 53.93,44.9 45,33 "/>
<g>
	
		<polygon fill-rule="evenodd" clip-rule="evenodd" fill="none" stroke="#2A2135" stroke-width="2" stroke-linecap="round" stroke-linejoin="round" stroke-miterlimit="10" points="
		68,45 22,45 32,33 58,33 	"/>
	
		<line fill-rule="evenodd" clip-rule="evenodd" fill="none" stroke="#2A2135" stroke-width="2" stroke-linecap="round" stroke-linejoin="round" stroke-miterlimit="10" x1="32" y1="33" x2="45" y2="71"/>
	
		<line fill-rule="evenodd" clip-rule="evenodd" fill="none" stroke="#2A2135" stroke-width="2" stroke-linecap="round" stroke-linejoin="round" stroke-miterlimit="10" x1="45" y1="33" x2="36" y2="45"/>
	
		<line fill-rule="evenodd" clip-rule="evenodd" fill="none" stroke="#2A2135" stroke-width="2" stroke-linecap="round" stroke-linejoin="round" stroke-miterlimit="10" x1="45" y1="33" x2="54" y2="45"/>
	
		<line fill-rule="evenodd" clip-rule="evenodd" fill="none" stroke="#2A2135" stroke-width="2" stroke-linecap="round" stroke-linejoin="round" stroke-miterlimit="10" x1="58" y1="33" x2="45" y2="71"/>
	
		<polyline fill-rule="evenodd" clip-rule="evenodd" fill="none" stroke="#2A2135" stroke-width="2" stroke-linecap="round" stroke-linejoin="round" stroke-miterlimit="10" points="
		68,45 45,71 22,45 	"/>
</g>
<g>
	
		<line fill-rule="evenodd" clip-rule="evenodd" fill="none" stroke="#DD5089" stroke-width="2" stroke-linecap="round" stroke-linejoin="round" stroke-miterlimit="10" x1="45.196" y1="17.269" x2="45.196" y2="24.768"/>
	
		<line fill-rule="evenodd" clip-rule="evenodd" fill="none" stroke="#DD5089" stroke-width="2" stroke-linecap="round" stroke-linejoin="round" stroke-miterlimit="10" x1="30.83" y1="19.92" x2="34.58" y2="26.414"/>
	
		<line fill-rule="evenodd" clip-rule="evenodd" fill="none" stroke="#DD5089" stroke-width="2" stroke-linecap="round" stroke-linejoin="round" stroke-miterlimit="10" x1="70.871" y1="27.577" x2="64.376" y2="31.327"/>
	
		<line fill-rule="evenodd" clip-rule="evenodd" fill="none" stroke="#DD5089" stroke-width="2" stroke-linecap="round" stroke-linejoin="round" stroke-miterlimit="10" x1="59.83" y1="19.487" x2="56.08" y2="25.981"/>
	
		<line fill-rule="evenodd" clip-rule="evenodd" fill="none" stroke="#DD5089" stroke-width="2" stroke-linecap="round" stroke-linejoin="round" stroke-miterlimit="10" x1="26.284" y1="30.894" x2="19.789" y2="27.144"/>
</g>
</svg>
