<?xml version="1.0" encoding="utf-8"?>
<!-- Generator: Adobe Illustrator 16.0.0, SVG Export Plug-In . SVG Version: 6.00 Build 0)  -->
<!DOCTYPE svg PUBLIC "-//W3C//DTD SVG 1.1//EN" "http://www.w3.org/Graphics/SVG/1.1/DTD/svg11.dtd">
<svg version="1.1" id="Layer_1" xmlns="http://www.w3.org/2000/svg" xmlns:xlink="http://www.w3.org/1999/xlink" x="0px" y="0px"
	 width="90px" height="90px" viewBox="0 0 90 90" enable-background="new 0 0 90 90" xml:space="preserve">
<circle fill="#DAE3E6" cx="45" cy="45" r="45"/>
<path fill="#ABCFD3" stroke="#232E38" stroke-width="2" stroke-linecap="round" stroke-linejoin="round" stroke-miterlimit="10" d="
	M70,22v10c0,2.209-1.791,4-4,4H24c-2.209,0-4-1.791-4-4V22c0-2.209,1.791-4,4-4h42C68.209,18,70,19.791,70,22z"/>
<line fill="none" stroke="#232E38" stroke-width="2" stroke-linecap="round" stroke-linejoin="round" stroke-miterlimit="10" x1="64" y1="27" x2="64" y2="27"/>
<line fill="none" stroke="#232E38" stroke-width="2" stroke-linecap="round" stroke-linejoin="round" stroke-miterlimit="10" x1="60" y1="27" x2="60" y2="27"/>
<line fill="none" stroke="#232E38" stroke-width="2" stroke-linecap="round" stroke-linejoin="round" stroke-miterlimit="10" x1="56" y1="27" x2="56" y2="27"/>
<path fill="#ABCFD3" d="M70,40v10c0,2.209-1.791,4-4,4H24c-2.209,0-4-1.791-4-4V40c0-2.209,1.791-4,4-4h42
	C68.209,36,70,37.791,70,40z"/>
<path fill="#ABCFD3" d="M70,58v10c0,2.209-1.791,4-4,4H24c-2.209,0-4-1.791-4-4V58c0-2.209,1.791-4,4-4h42
	C68.209,54,70,55.791,70,58z"/>
<path fill="none" stroke="#232E38" stroke-width="2" stroke-linecap="round" stroke-linejoin="round" stroke-miterlimit="10" d="
	M70,48v-8c0-2.209-1.791-4-4-4H24c-2.209,0-4,1.791-4,4v10c0,2.209,1.791,4,4,4h14"/>
<path fill="none" stroke="#232E38" stroke-width="2" stroke-linecap="round" stroke-linejoin="round" stroke-miterlimit="10" d="
	M38,54H24c-2.209,0-4,1.791-4,4v10c0,2.209,1.791,4,4,4h14"/>
<line fill="none" stroke="#232E38" stroke-width="2" stroke-linecap="round" stroke-linejoin="round" stroke-miterlimit="10" x1="26" y1="24" x2="26" y2="30"/>
<line fill="none" stroke="#232E38" stroke-width="2" stroke-linecap="round" stroke-linejoin="round" stroke-miterlimit="10" x1="26" y1="42" x2="26" y2="48"/>
<line fill="none" stroke="#232E38" stroke-width="2" stroke-linecap="round" stroke-linejoin="round" stroke-miterlimit="10" x1="26" y1="60" x2="26" y2="66"/>
<path fill="#81D4EF" stroke="#232E38" stroke-width="2" stroke-linecap="round" stroke-linejoin="round" stroke-miterlimit="10" d="
	M69.812,61.164c0.031-0.301,0.05-0.604,0.05-0.914c0-4.557-3.474-8.25-7.759-8.25c-3.326,0-6.154,2.229-7.258,5.355
	c-0.706-0.597-1.598-0.955-2.57-0.955c-2.286,0-4.138,1.97-4.138,4.399c0,0.127,0.008,0.252,0.018,0.377
	C45.737,62.078,44,64.521,44,67.4c0,3.645,2.779,6.6,6.207,6.6h17.586C71.221,74,74,71.045,74,67.4
	C74,64.508,72.248,62.056,69.812,61.164z"/>
<path fill="none" stroke="#232E38" stroke-width="2" stroke-linecap="round" stroke-linejoin="round" stroke-miterlimit="10" d="
	M67.793,60.8C71.221,60.8,74,63.755,74,67.4"/>
<path fill="none" stroke="#232E38" stroke-width="2" stroke-linecap="round" stroke-linejoin="round" stroke-miterlimit="10" d="
	M44,67.4c0-3.646,2.779-6.601,6.207-6.601"/>
<path fill="none" stroke="#232E38" stroke-width="2" stroke-linecap="round" stroke-linejoin="round" stroke-miterlimit="10" d="
	M52.276,56.4c1.593,0,2.977,0.957,3.668,2.361"/>
</svg>
